<?xml version="1.0" standalone="no"?>
<!DOCTYPE svg PUBLIC "-//W3C//DTD SVG 20010904//EN"
 "http://www.w3.org/TR/2001/REC-SVG-20010904/DTD/svg10.dtd">
<svg version="1.0" xmlns="http://www.w3.org/2000/svg"
 width="768.000000pt" height="709.000000pt" viewBox="0 0 768.000000 709.000000"
 preserveAspectRatio="xMidYMid meet">

<g transform="translate(0.000000,709.000000) scale(0.100000,-0.100000)"
fill="#000000" stroke="none">
<path d="M3845 5250 c-713 -46 -1300 -381 -1634 -933 -150 -248 -265 -602
-302 -927 -18 -161 -7 -391 25 -515 63 -243 197 -435 399 -569 192 -127 416
-199 712 -226 660 -60 1235 160 1735 664 l85 86 -123 123 -122 122 -68 -72
c-149 -161 -386 -341 -545 -417 -212 -100 -516 -135 -669 -77 -115 44 -201
156 -245 321 -23 85 -25 485 -2 595 l14 70 190 11 c947 57 1548 290 1758 682
75 141 108 368 76 524 -42 204 -209 368 -460 453 -204 70 -534 104 -824 85z
m583 -256 c169 -49 284 -127 339 -231 59 -111 65 -245 17 -391 -67 -204 -248
-363 -540 -476 -107 -41 -325 -99 -335 -88 -4 4 -9 16 -13 27 -4 16 6 27 52
57 212 138 366 341 408 539 9 41 15 121 15 179 0 156 -32 257 -107 340 -30 33
-34 42 -24 60 10 19 17 20 58 14 26 -4 84 -17 130 -30z m-965 -48 c3 -7 -10
-29 -30 -47 -48 -47 -182 -213 -241 -301 -154 -228 -281 -524 -367 -852 -135
-515 -119 -909 47 -1173 46 -73 166 -189 232 -224 87 -46 45 -61 -109 -39
-249 36 -464 144 -586 294 -64 80 -111 171 -145 281 -26 86 -28 100 -28 300 0
176 3 229 21 325 72 372 198 672 380 900 134 167 358 351 537 442 64 33 253
107 272 108 7 0 14 -6 17 -14z m503 -25 c52 -23 80 -69 99 -158 43 -201 -9
-426 -138 -600 -135 -182 -403 -317 -674 -340 -63 -5 -75 -4 -71 8 3 8 20 61
37 119 154 498 406 903 605 972 65 22 91 22 142 -1z"/>
</g>
</svg>
